<svg xmlns="http://www.w3.org/2000/svg" width="279" height="350" class="img-fluid" style="transform:matrix(1,0,0,1,0,0);transform-origin:50% 50%;cursor:move;transition:transform 200ms ease-in-out 0s" viewBox="0 0 2790 3500">
  <defs>
    <linearGradient id="a" x1="49.103943%" x2="49.103943%" y1="25.142857%" y2="94.28571%" gradientUnits="userSpaceOnUse">
      <stop offset="0%" style="stop-color:#fffefe"/>
      <stop offset="10%" style="stop-color:#fceff4"/>
      <stop offset="62%" style="stop-color:#d675b5"/>
      <stop offset="100%" style="stop-color:#3f38a5"/>
    </linearGradient>
    <linearGradient id="b" x1="34.05018%" x2="61.29032%" y1="21.428572%" y2="21.428572%" gradientUnits="userSpaceOnUse">
      <stop offset="0%" style="stop-color:#7d9fe8"/>
      <stop offset="100%" style="stop-color:#7e9de7"/>
    </linearGradient>
  </defs>
  <g fill="#FFFFFE" style="transform:none">
    <path fill="url(#a)" d="M808 1003c-20-3-28-10-28-24 0-18-9-19-210-19-203 0-210 1-210 20 0 17-7 20-50 20h-50V850h620v80c0 88 4 84-72 73zm1062-73v-80h620v163l-37-7c-21-3-44-6-50-6-7 0-13-9-13-20 0-19-7-20-210-20-198 0-210 1-210 19 0 14-10 20-37 25-65 10-63 13-63-74z"/>
    <path d="M1240 591c-151-66-337-143-416-171-110-39-184-71-184-80s25-20 169-76c120-47 183-72 385-155 66-27 131-49 145-49 15 0 105 32 201 71 96 40 209 84 250 100 144 53 260 104 257 113-1 4-23 16-49 26-34 13-50 14-64 7-22-12-182-46-364-78-107-18-129-25-155-49-39-36-67-44-109-30-58 19-78 95-39 148 27 37 104 44 137 13l22-21 130 24c215 41 237 46 241 50 2 2-54 27-124 56s-167 70-214 91c-48 22-102 39-120 39-19 0-63-13-99-29z"/>
  </g>
  <path fill="url(#a)" d="M262 1028c2-44 7-62 16-60 6 1 12-3 12-9s14-9 33-7l32 3 3 68 3 67H259l3-62zm520-5c3-66 4-68 31-71 19-2 34 3 44 15 8 10 11 12 7 4-5-9-3-12 4-7 7 4 12 32 12 67v59H779l3-67zm1088 8c0-35 5-63 12-67 7-5 9-2 4 7-4 8-1 6 7-4 10-12 25-17 44-15 27 3 28 5 31 71l3 67h-101v-59zm522-8c3-66 4-68 31-71 19-2 34 3 44 15 8 10 11 12 7 4-5-9-3-12 4-7 7 4 12 32 12 67v59h-101l3-67z" style="transform:none"/>
  <path fill="url(#a)" d="M262 1118c3-54 6-63 21-60 9 2 17-2 17-9 0-9 3-9 14 0 8 6 20 10 27 9 10-2 15 13 17 60l3 62H259l3-62zm520 0c3-54 6-63 21-60 9 2 17-2 17-9 0-9 3-9 14 0 8 6 20 10 27 9 10-2 15 13 17 60l3 62H779l3-62zm1090 0c3-54 6-63 21-60 9 2 17-2 17-9 0-9 3-9 14 0 8 6 20 10 27 9 10-2 15 13 17 60l3 62h-102l3-62zm520 0c3-54 6-63 21-60 9 2 17-2 17-9 0-9 3-9 14 0 8 6 20 10 27 9 10-2 15 13 17 60l3 62h-102l3-62z" style="transform:none"/>
  <path fill="url(#a)" d="M273 1284c-14-6-19-133-5-135 4-1 26-2 50-3l43-2-3 70-3 71-35 2c-19 1-41 0-47-3zm520 0c-14-6-19-133-5-135 4-1 26-3 50-4l43-3-3 72-3 71-35 2c-19 1-41 0-47-3zm1090 0c-9-4-13-29-13-73v-67h101l-3 71-3 70-35 2c-19 1-41 0-47-3zm520 0c-14-6-19-133-5-135 4-1 26-2 50-3l43-2-3 70-3 71-35 2c-19 1-41 0-47-3z" style="transform:none"/>
  <path fill="url(#a)" d="M273 1554c-10-4-13-45-13-154 0-139 1-148 20-153 11-3 22-1 25 4 3 4 17 4 31-1l25-10-3 158-3 157-35 2c-19 1-41 0-47-3zm520 0c-10-4-13-45-13-154 0-139 1-148 20-153 11-3 22-1 25 4 3 4 17 4 31-1l25-10-3 158-3 157-35 2c-19 1-41 0-47-3zm1090 0c-10-4-13-45-13-154 0-139 1-148 20-153 11-3 22-1 25 4 3 4 17 4 31-1l25-10-3 158-3 157-35 2c-19 1-41 0-47-3zm520 0c-10-4-13-45-13-154 0-139 1-148 20-153 11-3 22-1 25 4 3 4 17 4 31-1l25-10-3 158-3 157-35 2c-19 1-41 0-47-3z" style="transform:none"/>
  <path fill="url(#a)" d="M260 1726v-205l50 1h50v408H260v-204zm520 0v-205l50 1h50v268h990v-269l50 1h50v408H780v-204zm1610 0v-205l50 1h50v408h-100v-204z" style="transform:none"/>
  <path fill="url(#a)" d="M260 2139c0-202 2-232 17-247 12-12 18-13 21-4 2 7 8 10 13 6 5-3 18-2 29 1 19 6 20 15 20 241v234H260v-231zm520-2c0-200 2-231 17-245 12-13 17-14 21-4 3 10 120 12 565 12h575c9 0 12 53 12 233v232H780v-228zm1610 2c0-202 2-232 17-247 12-12 18-13 21-4 2 7 8 10 13 6 5-3 18-2 29 1 19 6 20 15 20 241v234h-100v-231z" style="transform:none"/>
  <path fill="url(#b)" d="m993 764-73-34V628l29 7c25 5 248 100 290 124 47 25 3 41-108 40-54 0-79-6-138-35zm665-12c-21-2-38-7-38-13 0-5-13-9-30-9-55 0-33-27 54-64 106-45 115-45 110-3-1 17-3 41-3 52-1 25-41 41-93 37z" style="transform:none"/>
  <path fill="url(#a)" d="M260 2556v-223h33c18 1 40-2 50-6 16-6 17 10 17 223v230H260v-224zm520-1v-225h586c322 0 590-2 595-5 5-4 9 85 9 224v231h-100v-370H880v370H780v-225zm1610 1v-223h33c18 1 40-2 50-6 16-6 17 10 17 223v230h-100v-224z" style="transform:none"/>
  <path fill="url(#b)" d="M1135 828c-77-34-142-65-143-70-2-4-9-5-14-2-7 4-8 2-4-5 4-6 13-8 19-4 14 9 24 10 107 19 36 3 80 2 99-3 28-7 43-4 80 15 57 29 70 26 201-37 57-27 108-47 112-45 4 3 8 1 8-5 0-7 8-7 25 1 14 6 25 15 25 20 0 4 13 8 29 8s37 3 46 6c21 8-19 33-130 81-44 19-103 45-132 59-40 18-68 24-120 23-61 0-83-7-208-61z" style="transform:none"/>
  <path fill="url(#a)" d="M260 3050v-300h100v520h420v-520h100v600H260v-300zm1610 0v-300h100v520h420v-520h100v600h-620v-300z" style="transform:none"/>
</svg>
